<?xml version="1.0" encoding="utf-8"?>
<!-- Generator: Adobe Illustrator 20.1.0, SVG Export Plug-In . SVG Version: 6.00 Build 0)  -->
<svg version="1.1" id="katman_1" xmlns="http://www.w3.org/2000/svg" xmlns:xlink="http://www.w3.org/1999/xlink" x="0px" y="0px"
	 viewBox="0 0 621.1 113.3" style="enable-background:new 0 0 621.1 113.3;" xml:space="preserve">
<g>
	<path d="M81.2,9.4c1,1.3,1.4,2.5,1.2,3.7c-0.2,1.2-0.7,2.4-1.6,3.6c-0.9,1.2-1.9,2.4-3.1,3.5c-1.2,1.1-2.3,2.3-3.3,3.4
		c-1.4,1.9-2.8,4-4.1,6.3C69,32,68,34.5,67.2,37c-0.8,2.6-1.2,5.2-1.3,8c-0.1,2.8,0.4,5.5,1.3,8.3c-1.3-2.3-2.2-4.6-2.6-7
		c-0.4-2.4-0.4-4.7-0.1-7.1c0.3-2.4,0.9-4.7,1.9-7c0.9-2.3,2.1-4.5,3.4-6.5l-10-2.1v36.7c1.2,0.9,2.3,1.4,3.4,1.3
		c1.1-0.1,2-0.4,2.8-1.1c0.8-0.6,1.5-1.4,1.9-2.4c0.4-1,0.6-1.9,0.5-2.8c0.5,0.9,0.4,2.1-0.1,3.5c-0.6,1.4-1.4,2.8-2.4,4.3
		c-1.1,1.5-2.2,2.9-3.3,4.3c-1.1,1.3-2.1,2.4-2.8,3.2v3.2c1.6,0.2,3.2,0,5-0.5c1.7-0.5,3.4-1.3,4.9-2.6c1.5-1.3,2.9-3,4-5.1
		c1.1-2.1,2-4.8,2.4-8.1C76.6,62,76,66.1,74.3,70c-1.7,3.8-4.3,7-7.9,9.5c-1.6,1.3-3,2.5-4.4,3.7c-1.3,1.2-2.3,2.7-2.8,4.6
		c-0.2-0.6-0.7-1.3-1.5-2.1c-0.8-0.8-1.8-1.5-3-2.3s-2.5-1.6-3.9-2.4c-1.4-0.8-2.8-1.6-4-2.4c-4.7-2.5-8.4-5.8-11.3-10
		c-2.9-4.1-4.8-8.5-5.9-13.2c-1-4.7-1.2-9.4-0.5-14.2c0.7-4.8,2.3-9.1,4.9-13c2.5-3.9,5.9-7,10.1-9.5c4.2-2.4,9.2-3.7,15.2-3.7
		c0.9,0.3,2.3,0.6,3.9,0.8s3.4,0.4,5.3,0.5c1.9,0.1,3.8,0,5.6-0.1c1.8-0.2,3.4-0.5,4.7-1c1.3-0.5,2.3-1.2,2.8-2.2
		C82,12.2,81.9,10.9,81.2,9.4z M46.4,67.7c0.5-1.6,0.9-3.2,1.3-4.7c0.4-1.6,0.6-2.8,0.6-3.7L48.1,27c-1.8,2-3.5,4.4-5,7.4
		c-1.5,3-2.5,6.4-3,10.2c-0.2-2-0.1-4,0.3-6c0.4-2,0.9-4,1.6-5.9c0.7-1.9,1.6-3.8,2.6-5.5c1-1.7,2.2-3.2,3.5-4.6l-0.1-3
		c-3.3,2.4-5.9,5.6-7.6,9.8c-1.8,4.2-2.8,8.6-3,13.2c-0.2,4.6,0.4,9.2,1.9,13.6C40.9,60.9,43.2,64.7,46.4,67.7z M48,69.1
		c3,2.4,6.3,3.8,10,4.4v-3.3c-0.7-1.3-1.6-2.3-2.7-2.8c-1.1-0.6-2.3-0.4-3.7,0.6c0.2-0.3,0.4-0.6,0.7-0.9c0.2-0.3,0.5-0.7,0.9-1.2
		c0.4-0.5,0.8-1,1.4-1.7l3.4-4.5v-3L48,69.1z M56.9,23v31c0,0.5,0.1,0.9,0.2,1.3c0.1,0.4,0.4,0.7,0.9,0.8V23.2L56.9,23z"/>
	<path d="M103.7,63.7c0.1,1.1,0.2,2.1,0.2,3c0.1,0.9,0.2,1.7,0.5,2.4c-1,0.1-2.5,0.8-4.4,2.3c-1.9,1.4-3.8,3.1-5.7,5.1
		c-1.9,2-3.6,4-5,6.1c-1.5,2.1-2.3,3.9-2.4,5.3c-0.2-1.5-0.7-3-1.5-4.4c-0.9-1.5-1.8-2.8-2.9-4c-1.1-1.2-2.1-2.2-3.2-3.1
		c-1.1-0.9-2-1.4-2.7-1.7c1.4-0.9,2.3-2.3,2.7-4.4c0.4-2.1,0.6-4.5,0.6-7.3V43.7c0-0.6-0.1-1.2-0.3-1.7c-0.2-0.5-0.6-1-1.1-1.4
		c2.3-1.3,4.7-2.7,7.2-4.2c2.5-1.5,4.6-3.2,6.3-5.2c0.3,0.6,0.8,1,1.6,1.4c0.8,0.4,1.5,0.7,2.4,1c0.8,0.3,1.6,0.5,2.4,0.7
		c0.7,0.2,1.3,0.2,1.7,0.2c0.8,0,1.5-0.2,2.3-0.7s1.3-1.1,1.7-2c0.4-0.8,0.6-1.8,0.6-2.9c0-1.1-0.3-2.3-0.9-3.6
		c1.1,1.3,1.7,2.7,1.9,4c0.2,1.3,0.1,2.6-0.1,3.9s-0.6,2.6-0.9,3.9c-0.4,1.3-0.6,2.5-0.6,3.7L103.7,63.7z M95,45.6
		c0-0.6-0.1-1.1-0.2-1.6c-0.2-0.5-0.5-1-1.1-1.4l-5.2-1.9v30.9l3.3,3c0.7-0.5,1.3-1.1,1.7-2c0.4-0.9,0.8-1.8,1-2.8
		c0.2-1,0.4-2.1,0.4-3.1c0-1,0.1-1.9,0.1-2.6V45.6z"/>
	<path d="M125.5,44.6c0.8,0.5,1.6,1,2.3,1.7c0.7,0.6,1.5,1.2,2.4,1.8c0.8,0.6,1.7,0.9,2.5,1.1c0.9,0.2,1.9,0.1,3-0.3
		c-0.9,0.9-1.5,1.7-2,2.4c-0.4,0.7-0.7,1.7-0.7,3.1v14.9c-1,1-2.2,2.3-3.6,3.8c-1.4,1.5-2.7,3.1-4,4.7c-1.3,1.7-2.4,3.4-3.4,5.2
		c-1,1.8-1.6,3.4-1.7,4.9c-0.2-1.4-0.7-2.8-1.5-4c-0.8-1.3-1.8-2.4-3-3.6c-1.2-1.1-2.4-2.1-3.8-3.1c-1.3-0.9-2.6-1.8-3.7-2.5
		c0.3-0.3,0.4-1.2,0.2-2.5c-0.2-1.4-0.4-2.9-0.7-4.6c-0.2-1.7-0.3-3.3-0.3-4.9c0-1.6,0.5-2.8,1.5-3.7c-0.9,1.6-0.9,3.1,0.1,4.6
		c1,1.5,2.5,2.9,4.3,4.3c1.8,1.3,3.7,2.6,5.7,3.7c2,1.1,3.5,2.2,4.6,3c0.2-1,0.4-2.2,0.5-3.4c0.1-1.3,0.1-2.6,0.1-4.1v-8.6
		c0-1.3-0.3-2.1-0.8-2.5c-0.5-0.4-1.3-0.9-2.2-1.4c-1.4,1.4-2.7,2.7-3.8,4c-1.1,1.2-1.9,2.1-2.6,2.7c-0.2,3,0.3,5.6,1.7,7.9
		c-1.1-1.1-1.9-2.3-2.4-3.7c-0.5-1.4-0.7-2.8-0.6-4.3c-1.6-1.4-2.8-2.8-3.8-4.1s-1.7-2.5-2.1-3.7c-0.5-1.1-0.8-2.2-0.9-3.1
		c-0.1-0.9-0.2-1.6-0.2-2.2v-4.4c0-0.6-0.1-1.1-0.2-1.7c-0.2-0.6-0.5-1-1.1-1.3c2.3-1.3,4.7-2.7,7.3-4.2c2.6-1.5,4.7-3.2,6.4-5.2
		c0.3,0.6,0.8,1,1.5,1.4c0.7,0.4,1.5,0.7,2.3,1c0.8,0.3,1.6,0.5,2.4,0.7c0.7,0.2,1.3,0.2,1.7,0.2c0.8,0,1.5-0.2,2.2-0.7
		c0.7-0.5,1.3-1.1,1.7-2c0.4-0.8,0.6-1.8,0.6-2.9c0-1.1-0.3-2.3-0.9-3.6c1.8,2.2,2.6,4.5,2.4,6.9c-0.2,2.4-1.3,4.5-3.1,6.3
		c-1.3,1.2-2.4,2.2-3.5,3.1c-1.1,0.9-2.1,1.8-3.1,2.7c-1,0.9-1.9,1.9-2.9,3c-0.9,1.1-1.9,2.5-2.8,4.3c0.2,0.2,0.5,0.4,0.8,0.7
		L125.5,44.6z M115.5,47.2c0,1.2,0.4,2.3,1.3,3.3c0.6-1.3,1.3-2.6,2.1-3.9c0.7-1.2,1.5-2.4,2.2-3.5l-5.5-2.5V47.2z"/>
	<path d="M168.2,72c0.8-1.1,1.5-2.3,2.1-3.6c0,2-0.5,3.7-1.5,5.3c-1,1.5-2.1,3-3.3,4.5c-1.2,1.5-2.3,2.9-3.4,4.4
		c-1.1,1.5-1.7,3.2-2,5.2c-0.2-1.5-0.6-2.9-1.2-4.3c-0.7-1.4-1.5-2.7-2.4-3.8c-0.9-1.2-1.8-2.2-2.8-3c-0.9-0.8-1.7-1.5-2.4-2
		c0.8-0.2,1.3-0.6,1.5-1.1c0.2-0.5,0.3-1.1,0.3-1.8V58.5c0-1.1-0.2-1.9-0.7-2.4c-0.5-0.5-1.1-1-2-1.4c-0.8,1.6-1.3,3-1.4,4.2
		c-0.2,1.2,0.1,2.2,0.8,3c-1.4-0.9-2.1-2.2-1.9-3.9c0.2-1.7,0.6-3.5,1.4-5.3c1.5-3.2,3.3-6.4,5.5-9.6l-2-1.1c-0.8-0.3-1.5,0.4-2.3,2
		c-0.7,1.7-1.3,3.8-1.8,6.3c-0.5,2.6-1,5.3-1.4,8.2c-0.4,2.9-0.6,5.4-0.7,7.5c0.2,3.2,0.5,5.5,1.1,6.6c0.6,1.2,1.6,1.8,3.1,1.8
		c-0.4,0.5-0.8,1.1-1.4,2c-0.5,0.8-1,1.8-1.6,3c-0.6,1.1-1.1,2.4-1.5,3.9s-0.8,2.9-0.9,4.4c-0.2-1.5-0.7-3-1.5-4.4
		c-0.9-1.5-1.9-2.8-3-4c-1.1-1.2-2.3-2.2-3.4-3.1c-1.1-0.9-2-1.4-2.7-1.7c1.4-0.9,2.3-2.3,2.7-4.4c0.4-2.1,0.6-4.5,0.6-7.3V28.2
		c-0.1-0.6-0.2-1.1-0.4-1.7c-0.2-0.6-0.5-1-1.1-1.3c1.6-0.9,3.1-1.7,4.6-2.6c1.5-0.9,3-1.8,4.5-2.8c3.2-2.5,6-4.6,8.4-6.3
		c2.4-1.7,4.5-2.4,6.2-2.4c-0.8,0.8-1,1.7-0.7,2.6c0.3,0.9,0.7,2,1.2,3c0.5,1.1,0.9,2.2,1.2,3.3c0.3,1.1,0,2.3-0.8,3.4
		c0.6-2.1,0.3-3.8-0.8-5.1c-1.1-1.3-2.5-2.1-4.1-2.3c-1.6-0.2-3.3,0.3-5,1.4c-1.7,1.1-2.9,3.1-3.5,5.9c-0.6,2.3-0.9,4.9-1,7.7
		s-0.2,5.5-0.2,8.1v13c0.4-3.5,1.1-7.1,2.1-11c1-3.9,2.7-7.2,5.1-10c0.9,1.8,2.1,2.9,3.4,3.2c1.3,0.3,2.4,0.1,3.4-0.6
		s1.6-1.8,1.9-3.4c0.3-1.5,0-3.2-0.8-5c1.7,1.9,2.4,3.8,2.4,5.8c-0.1,2-0.6,3.9-1.5,5.7c-0.9,1.9-2.2,3.7-3.6,5.4
		c-1.5,1.7-2.7,3.4-3.7,4.9c0.8,0.4,1.5,0.8,2.3,1.1s1.4,0.7,2.1,0.9s1.5,0.3,2.3,0.3c0.8,0,1.7-0.3,2.7-0.7c-0.9,0.9-1.5,1.7-2,2.4
		c-0.5,0.7-0.7,1.7-0.7,3.1l0.1,17.3l3.2,3C166.4,73.9,167.4,73,168.2,72z"/>
	<path d="M198.5,72c0.8-1.1,1.5-2.3,2.1-3.6c0,1-0.2,2.1-0.6,3.1c-0.4,1.1-0.9,2.1-1.5,3.1c-1.5,1.8-2.7,3.4-3.7,4.7
		c-0.9,1.3-1.9,2.8-2.7,4.3c-0.9,1.5-1.4,2.9-1.5,4.1c-0.2-1.2-0.5-2.4-1.1-3.5c-0.6-1.1-1.2-2.3-1.9-3.3c-0.7-1.1-1.6-2-2.5-2.8
		c-0.9-0.8-1.7-1.6-2.5-2.2c-0.5,0.8-1.2,1.6-2,2.5c-0.8,0.9-1.5,1.8-2.2,2.7c-0.7,0.9-1.3,2-1.9,3.1c-0.6,1.1-0.9,2.3-0.9,3.6
		c-0.2-1.5-0.7-3-1.5-4.4c-0.9-1.5-1.8-2.8-2.9-4c-1.1-1.2-2.1-2.2-3.2-3.1c-1.1-0.9-2-1.4-2.7-1.7c1.4-0.9,2.3-2.3,2.7-4.4
		c0.4-2.1,0.6-4.5,0.6-7.3V44.1c0-1.3-0.3-2.2-0.9-2.7c-0.6-0.4-1.4-1-2.4-1.6c0.7-0.9,1.7-2.1,3-3.5c1.3-1.4,2.4-3.1,3.6-5
		c0.3,0.6,0.7,1.1,1.1,1.8c0.4,0.6,1,1.2,1.6,1.7c0.6,0.5,1.4,0.8,2.2,0.9c0.9,0.2,1.9,0.1,3.1-0.2c-0.9,0.9-1.5,1.7-1.9,2.4
		s-0.6,1.7-0.6,3.1v30.8l3.3,3c0.8-0.5,1.4-1.2,1.9-2.2c0.5-1,0.8-2,0.9-3.1c0.2-1.1,0.3-2.2,0.3-3.4c0-1.1,0.1-2.2,0.1-3V45.7
		c0-0.6-0.1-1.1-0.2-1.7c-0.2-0.6-0.5-1-1.1-1.3l3.7-2.1c-0.6-0.2-1.3-0.4-2-0.5c-0.7-0.1-1.4-0.2-2.1-0.1c-0.7,0-1.2,0.2-1.7,0.6
		c-0.5,0.4-0.8,0.9-1.1,1.7c-0.2-1-0.1-2.1,0.3-3.1c0.4-1,0.9-2,1.5-3c0.6-0.9,1.3-1.8,2.1-2.7c0.8-0.8,1.4-1.6,2.1-2.3
		c0.9,1.5,2,2.4,3.2,2.6s2.2,0,3.1-0.7c0.9-0.7,1.4-1.8,1.8-3.1c0.3-1.4,0.1-2.9-0.7-4.6c1,1.3,1.6,2.6,1.8,4.1
		c0.2,1.5,0.1,2.9-0.2,4.3c-0.3,1.4-0.7,2.6-1.1,3.8c-0.4,1.1-0.6,2-0.6,2.5v31.4l3.2,3C196.7,73.9,197.7,73,198.5,72z"/>
	<path d="M229.1,72c0.8-1.1,1.5-2.3,2.1-3.6c0,1-0.2,2.1-0.6,3.1c-0.4,1.1-0.9,2.1-1.5,3.1c-1.5,1.8-2.7,3.4-3.7,4.7
		c-0.9,1.3-1.9,2.8-2.7,4.3c-0.9,1.5-1.4,2.9-1.5,4.1c-0.2-1.5-0.6-2.9-1.2-4.3c-0.7-1.4-1.5-2.7-2.4-3.8c-0.9-1.2-1.8-2.2-2.8-3
		c-0.9-0.8-1.7-1.5-2.4-2c0.8-0.2,1.3-0.6,1.5-1.1c0.2-0.5,0.3-1.1,0.3-1.8V45.3c0-0.6-0.1-1.1-0.3-1.6c-0.2-0.5-0.5-1-1-1.4
		c-0.7,0.6-1.4,1.8-2,3.6c-0.6,1.9-1.1,4-1.6,6.3c-0.4,2.4-0.8,4.8-1.1,7.3c-0.3,2.5-0.5,4.7-0.6,6.6c0.2,3.2,0.5,5.5,1.1,6.6
		s1.6,1.8,3.2,1.8c-0.4,0.5-0.9,1.1-1.4,2c-0.5,0.8-1.1,1.8-1.6,3c-0.6,1.1-1.1,2.4-1.6,3.9c-0.5,1.4-0.8,2.9-1,4.4
		c-0.2-1.5-0.7-3-1.5-4.4c-0.9-1.5-1.9-2.8-3-4c-1.1-1.2-2.2-2.2-3.3-3.1c-1.1-0.9-2-1.4-2.7-1.7c1.4-0.9,2.3-2.3,2.7-4.4
		c0.4-2.1,0.5-4.5,0.5-7.3V44.1c0-0.5-0.1-0.9-0.2-1.4s-0.4-0.9-0.8-1.3l-2.3-1.5c0.7-0.9,1.7-2.1,3-3.5c1.3-1.4,2.4-3.1,3.5-5
		c0.3,0.6,0.7,1.1,1.1,1.8c0.4,0.6,1,1.2,1.6,1.7c0.6,0.5,1.4,0.8,2.3,0.9c0.9,0.2,1.9,0.1,3.1-0.2c-0.9,0.9-1.6,1.7-2,2.4
		c-0.5,0.7-0.7,1.7-0.7,3.1l0.1,11.4c0.4-3.5,1.1-7.1,2.1-11c1-3.9,2.7-7.2,5.1-10c0.9,1.8,2.1,2.9,3.4,3.2c1.3,0.3,2.4,0.1,3.4-0.6
		s1.6-1.8,1.9-3.4c0.3-1.5,0-3.2-0.8-5c1.2,1.4,1.9,2.8,2.1,4c0.2,1.3,0.1,2.4-0.2,3.6c-0.3,1.1-0.7,2.1-1.1,3
		c-0.4,0.9-0.7,1.7-0.7,2.4l0.1,33.2l3.2,3C227.3,73.9,228.3,73,229.1,72z"/>
	<path d="M298.5,9.4c1,1.3,1.4,2.5,1.2,3.7c-0.2,1.2-0.7,2.4-1.6,3.6c-0.9,1.2-1.9,2.4-3.1,3.5c-1.2,1.1-2.3,2.3-3.3,3.4
		c-1.4,1.9-2.8,4-4.1,6.3c-1.3,2.3-2.4,4.7-3.1,7.3c-0.8,2.6-1.2,5.2-1.3,8c-0.1,2.8,0.4,5.5,1.3,8.3c-1.3-2.3-2.2-4.6-2.6-7
		c-0.4-2.4-0.4-4.7-0.1-7.1c0.3-2.4,0.9-4.7,1.9-7c0.9-2.3,2.1-4.5,3.4-6.5l-10-2.1v36.7c1.2,0.9,2.3,1.4,3.4,1.3
		c1.1-0.1,2-0.4,2.8-1.1c0.8-0.6,1.5-1.4,1.9-2.4c0.4-1,0.6-1.9,0.5-2.8c0.5,0.9,0.4,2.1-0.1,3.5c-0.6,1.4-1.4,2.8-2.4,4.3
		c-1.1,1.5-2.2,2.9-3.3,4.3c-1.1,1.3-2.1,2.4-2.8,3.2v3.2c1.6,0.2,3.2,0,5-0.5c1.7-0.5,3.4-1.3,4.9-2.6c1.5-1.3,2.9-3,4-5.1
		c1.1-2.1,2-4.8,2.4-8.1c0.4,4.4-0.2,8.6-1.9,12.4c-1.7,3.8-4.3,7-7.9,9.5c-1.6,1.3-3,2.5-4.4,3.7c-1.3,1.2-2.3,2.7-2.8,4.6
		c-0.2-0.6-0.7-1.3-1.5-2.1c-0.8-0.8-1.8-1.5-3-2.3c-1.2-0.8-2.5-1.6-3.9-2.4c-1.4-0.8-2.8-1.6-4-2.4c-4.7-2.5-8.4-5.8-11.3-10
		c-2.9-4.1-4.8-8.5-5.9-13.2c-1-4.7-1.2-9.4-0.5-14.2c0.7-4.8,2.3-9.1,4.9-13c2.5-3.9,5.9-7,10.1-9.5c4.2-2.4,9.2-3.7,15.2-3.7
		c0.9,0.3,2.3,0.6,3.9,0.8s3.4,0.4,5.3,0.5c1.9,0.1,3.8,0,5.6-0.1c1.8-0.2,3.4-0.5,4.7-1c1.3-0.5,2.3-1.2,2.8-2.2
		C299.3,12.2,299.2,10.9,298.5,9.4z M263.6,67.7c0.5-1.6,0.9-3.2,1.3-4.7c0.4-1.6,0.6-2.8,0.6-3.7L265.4,27c-1.8,2-3.5,4.4-5,7.4
		c-1.5,3-2.5,6.4-3,10.2c-0.2-2-0.1-4,0.3-6s0.9-4,1.6-5.9c0.7-1.9,1.6-3.8,2.6-5.5c1-1.7,2.2-3.2,3.5-4.6l-0.1-3
		c-3.3,2.4-5.9,5.6-7.6,9.8c-1.8,4.2-2.8,8.6-3,13.2c-0.2,4.6,0.4,9.2,1.9,13.6C258.2,60.9,260.5,64.7,263.6,67.7z M265.3,69.1
		c3,2.4,6.3,3.8,10,4.4v-3.3c-0.7-1.3-1.6-2.3-2.7-2.8c-1.1-0.6-2.3-0.4-3.7,0.6c0.2-0.3,0.4-0.6,0.7-0.9c0.2-0.3,0.5-0.7,0.9-1.2
		c0.4-0.5,0.8-1,1.4-1.7l3.4-4.5v-3L265.3,69.1z M274.2,23v31c0,0.5,0.1,0.9,0.2,1.3c0.1,0.4,0.4,0.7,0.9,0.8V23.2L274.2,23z"/>
	<path d="M324.2,74.6c1.3-0.7,2.3-1.6,3.1-2.7c0.8-1.1,1.5-2.3,2.1-3.6c0,1.8-0.5,3.5-1.5,5.1c-1,1.6-2.1,3.1-3.3,4.6
		c-1.2,1.5-2.4,3-3.4,4.6c-1.1,1.6-1.7,3.3-1.9,5.1c-0.2-1.2-0.5-2.4-1.1-3.6c-0.5-1.2-1.2-2.3-1.9-3.3c-0.7-1-1.6-2-2.5-2.8
		c-0.9-0.9-1.7-1.6-2.5-2.1c-0.6,0.9-1.3,1.7-2.1,2.5c-0.7,0.8-1.5,1.7-2.2,2.6c-0.7,0.9-1.3,1.9-1.8,3c-0.5,1.1-0.8,2.3-1,3.7
		c-0.2-1.5-0.7-3-1.5-4.4c-0.8-1.5-1.8-2.8-2.8-4c-1.1-1.2-2.2-2.2-3.3-3.1c-1.1-0.9-2-1.4-2.7-1.7c1.4-0.9,2.3-2.3,2.7-4.4
		c0.4-2.1,0.6-4.5,0.6-7.3v-9.1c0-0.6-0.1-1.2-0.3-1.8c-0.2-0.6-0.6-1-1.1-1.3l5.9-3.4c-1.2-0.1-2.1-0.4-2.7-1.1
		c-0.6-0.6-1-1.4-1.2-2.3c-0.2-0.9-0.1-1.9,0.1-2.8c0.2-1,0.6-1.9,1.1-2.7c0.7-1.2,1.6-2.3,2.8-3.3c1.1-1,2.4-2.3,3.7-3.8
		c0.3,0.6,1,1,2.2,1.4c1.1,0.4,2.4,0.7,3.6,1c1.3,0.3,2.5,0.5,3.6,0.7c1.1,0.2,1.9,0.2,2.3,0.2c0.8,0,1.5-0.2,2.2-0.7s1.3-1.1,1.6-2
		s0.6-1.8,0.6-2.9c0-1.1-0.3-2.3-0.9-3.6c1.1,1.3,1.7,2.7,1.9,4c0.2,1.3,0.1,2.6-0.1,3.9c-0.2,1.3-0.6,2.6-0.9,3.9
		c-0.4,1.3-0.6,2.5-0.6,3.7v30.8L324.2,74.6z M309.1,74.6c0.9-0.5,1.5-1.2,2-2.2c0.4-1,0.8-2.1,0.9-3.2c0.2-1.1,0.3-2.3,0.3-3.4
		c0-1.1,0-2.1,0-3V46.2c0-0.6-0.1-1.1-0.3-1.8c-0.2-0.6-0.6-1-1.3-1.2l-7.8-2.3c-0.9-0.3-1.7-0.3-2.3,0.1c-0.6,0.4-0.9,0.9-1,1.6
		c-0.1,0.7,0,1.3,0.4,2c0.4,0.6,1,1,1.8,1.2c1.3,0.2,2.7,0.1,4.2-0.5c1.5-0.6,2.8-1.2,4.1-1.7c-0.3,0.4-0.7,0.8-1.2,1.3
		c-0.5,0.5-0.9,1-1.4,1.6c-0.5,0.6-0.9,1.2-1.2,2c-0.3,0.7-0.5,1.5-0.5,2.4v20.9L309.1,74.6z"/>
	<path d="M351.4,63c0.1,1.2,0.1,2.3,0.2,3.3c0,1,0.2,1.9,0.5,2.7c-1.2,0.1-2.7,0.9-4.7,2.4c-1.9,1.5-3.8,3.3-5.7,5.3
		c-1.9,2-3.5,4.1-4.9,6.2c-1.4,2.1-2.2,3.7-2.3,4.8c-0.2-1.5-0.7-3-1.5-4.4c-0.9-1.5-1.8-2.8-2.9-4c-1.1-1.2-2.1-2.2-3.2-3.1
		c-1.1-0.9-2-1.4-2.7-1.7c1.4-0.9,2.3-2.3,2.7-4.4c0.4-2.1,0.6-4.5,0.6-7.3V28.2c-0.1-0.6-0.2-1.1-0.4-1.6c-0.2-0.5-0.5-1-1.1-1.4
		c1.6-0.9,3.1-1.7,4.6-2.6c1.5-0.9,3-1.8,4.5-2.8c3.2-2.5,6-4.6,8.4-6.3c2.4-1.7,4.5-2.4,6.2-2.4c-0.8,0.8-1,1.7-0.7,2.6
		c0.3,0.9,0.7,2,1.2,3c0.5,1.1,0.9,2.2,1.2,3.3c0.3,1.1,0,2.3-0.8,3.4c0.6-2.1,0.3-3.8-0.8-5.1c-1.1-1.3-2.5-2.1-4.1-2.3
		c-1.6-0.2-3.3,0.3-5,1.4c-1.7,1.1-2.9,3.1-3.5,5.9c-0.6,2.5-1,5.4-1.1,8.6c-0.1,3.2-0.1,6.2-0.1,8.8v11.4c0.4-3.6,1.1-7.2,2.1-11.1
		c1-3.8,2.7-7.1,5.1-9.9c0.9,1.8,2.1,2.9,3.4,3.2c1.3,0.3,2.4,0.1,3.4-0.6c0.9-0.7,1.6-1.8,1.9-3.4c0.3-1.5,0-3.2-0.8-5
		c1.1,1.3,1.7,2.7,1.9,4c0.2,1.3,0.1,2.6-0.2,3.9c-0.3,1.3-0.6,2.6-1,3.9c-0.4,1.3-0.6,2.5-0.6,3.7V63z M342.8,45.7
		c0-0.9-0.5-2-1.5-3.2c-0.7,0.6-1.3,1.9-1.9,3.9c-0.6,1.9-1,4.1-1.5,6.5c-0.4,2.4-0.8,4.8-1.1,7.3c-0.3,2.5-0.5,4.6-0.5,6.5v5.1
		l3.3,3c0.9-0.5,1.6-1.5,2.3-3c0.6-1.5,0.9-4,0.9-7.5V45.7z"/>
	<path d="M386.3,72c0.8-1.1,1.5-2.3,2.1-3.6c0,1-0.2,2.1-0.6,3.1c-0.4,1.1-0.9,2.1-1.5,3.1c-1.5,1.8-2.7,3.4-3.7,4.7
		c-0.9,1.3-1.9,2.8-2.7,4.3c-0.9,1.5-1.4,2.9-1.5,4.1c-0.2-1.2-0.5-2.4-1.1-3.5c-0.5-1.1-1.2-2.3-1.9-3.3c-0.7-1.1-1.6-2-2.5-2.8
		c-0.9-0.8-1.7-1.6-2.5-2.2c-0.5,0.8-1.2,1.6-2,2.5c-0.8,0.9-1.5,1.8-2.2,2.7c-0.7,0.9-1.3,2-1.9,3.1c-0.5,1.1-0.9,2.3-0.9,3.6
		c-0.2-1.5-0.7-3-1.5-4.4c-0.9-1.5-1.8-2.8-2.9-4c-1.1-1.2-2.1-2.2-3.2-3.1c-1.1-0.9-2-1.4-2.7-1.7c1.4-0.9,2.3-2.3,2.7-4.4
		c0.4-2.1,0.6-4.5,0.6-7.3V44.1c0-1.3-0.3-2.2-0.9-2.7c-0.6-0.4-1.4-1-2.4-1.6c0.7-0.9,1.7-2.1,3-3.5c1.3-1.4,2.4-3.1,3.6-5
		c0.3,0.6,0.7,1.1,1.1,1.8c0.4,0.6,1,1.2,1.6,1.7c0.6,0.5,1.4,0.8,2.2,0.9c0.9,0.2,1.9,0.1,3.1-0.2c-0.9,0.9-1.5,1.7-1.9,2.4
		s-0.6,1.7-0.6,3.1v30.8l3.3,3c0.8-0.5,1.4-1.2,1.9-2.2c0.5-1,0.8-2,0.9-3.1c0.2-1.1,0.3-2.2,0.3-3.4c0-1.1,0.1-2.2,0.1-3V45.7
		c0-0.6-0.1-1.1-0.2-1.7c-0.2-0.6-0.5-1-1.1-1.3l3.7-2.1c-0.6-0.2-1.3-0.4-2-0.5c-0.7-0.1-1.4-0.2-2.1-0.1c-0.7,0-1.2,0.2-1.7,0.6
		c-0.5,0.4-0.8,0.9-1.1,1.7c-0.2-1-0.1-2.1,0.3-3.1c0.4-1,0.9-2,1.5-3c0.6-0.9,1.3-1.8,2.1-2.7c0.8-0.8,1.5-1.6,2.1-2.3
		c0.9,1.5,2,2.4,3.2,2.6s2.2,0,3.1-0.7c0.9-0.7,1.4-1.8,1.8-3.1c0.3-1.4,0.1-2.9-0.7-4.6c1,1.3,1.6,2.6,1.8,4.1
		c0.2,1.5,0.1,2.9-0.2,4.3c-0.3,1.4-0.7,2.6-1.1,3.8c-0.4,1.1-0.6,2-0.6,2.5v31.4l3.2,3C384.5,73.9,385.5,73,386.3,72z"/>
	<path d="M416.8,72c0.8-1.1,1.5-2.3,2.1-3.6c0,2-0.5,3.7-1.5,5.3c-1,1.5-2.1,3-3.3,4.5c-1.2,1.5-2.3,2.9-3.4,4.4
		c-1.1,1.5-1.7,3.2-2,5.2c-0.2-1.5-0.6-2.9-1.2-4.3c-0.7-1.4-1.5-2.7-2.4-3.8c-0.9-1.2-1.8-2.2-2.8-3c-0.9-0.8-1.7-1.5-2.4-2
		c0.8-0.2,1.3-0.6,1.5-1.1c0.2-0.5,0.3-1.1,0.3-1.8V58.5c0-1.1-0.2-1.9-0.7-2.4c-0.5-0.5-1.1-1-2-1.4c-0.8,1.6-1.3,3-1.4,4.2
		c-0.2,1.2,0.1,2.2,0.8,3c-1.4-0.9-2.1-2.2-1.9-3.9c0.2-1.7,0.6-3.5,1.4-5.3c1.5-3.2,3.3-6.4,5.5-9.6l-2-1.1c-0.8-0.3-1.5,0.4-2.3,2
		c-0.7,1.7-1.3,3.8-1.8,6.3c-0.5,2.6-1,5.3-1.4,8.2c-0.4,2.9-0.6,5.4-0.7,7.5c0.2,3.2,0.5,5.5,1.1,6.6c0.6,1.2,1.6,1.8,3.1,1.8
		c-0.4,0.5-0.8,1.1-1.4,2c-0.5,0.8-1,1.8-1.6,3c-0.6,1.1-1.1,2.4-1.5,3.9c-0.5,1.4-0.8,2.9-0.9,4.4c-0.2-1.5-0.7-3-1.5-4.4
		c-0.9-1.5-1.9-2.8-3-4c-1.1-1.2-2.3-2.2-3.4-3.1c-1.1-0.9-2-1.4-2.7-1.7c1.4-0.9,2.3-2.3,2.7-4.4c0.4-2.1,0.6-4.5,0.6-7.3V28.2
		c-0.1-0.6-0.2-1.1-0.4-1.7c-0.2-0.6-0.5-1-1.1-1.3c1.6-0.9,3.1-1.7,4.6-2.6c1.5-0.9,3-1.8,4.5-2.8c3.2-2.5,6-4.6,8.4-6.3
		c2.4-1.7,4.5-2.4,6.2-2.4c-0.8,0.8-1,1.7-0.7,2.6c0.3,0.9,0.7,2,1.2,3c0.5,1.1,0.9,2.2,1.2,3.3c0.3,1.1,0,2.3-0.8,3.4
		c0.6-2.1,0.3-3.8-0.8-5.1c-1.1-1.3-2.5-2.1-4.1-2.3c-1.6-0.2-3.3,0.3-5,1.4c-1.7,1.1-2.9,3.1-3.5,5.9c-0.6,2.3-0.9,4.9-1,7.7
		c-0.1,2.8-0.2,5.5-0.2,8.1v13c0.4-3.5,1.1-7.1,2.1-11c1-3.9,2.7-7.2,5.1-10c0.9,1.8,2.1,2.9,3.4,3.2c1.3,0.3,2.4,0.1,3.4-0.6
		c0.9-0.7,1.6-1.8,1.9-3.4c0.3-1.5,0-3.2-0.8-5c1.7,1.9,2.4,3.8,2.4,5.8c-0.1,2-0.6,3.9-1.5,5.7c-0.9,1.9-2.2,3.7-3.6,5.4
		c-1.5,1.7-2.7,3.4-3.7,4.9c0.8,0.4,1.5,0.8,2.3,1.1s1.4,0.7,2.1,0.9s1.5,0.3,2.3,0.3c0.8,0,1.7-0.3,2.7-0.7c-0.9,0.9-1.5,1.7-2,2.4
		s-0.7,1.7-0.7,3.1l0.1,17.3l3.2,3C415.1,73.9,416.1,73,416.8,72z"/>
	<path d="M421.8,17.1c0.6,0.8,1.1,1.6,1.5,2.4c0.4,0.8,0.7,1.6,0.8,2.3c0.2,0.7,0.1,1.3-0.2,1.7c-0.6,0.7-1.1,1.5-1.4,2.3
		c-0.3,0.8-0.6,1.6-0.8,2.4c-0.3,0.8-0.7,1.5-1.1,2.2c-0.5,0.7-1.2,1.2-2.1,1.7c1.1-1,1.6-2.4,1.4-4.1c-0.2-1.7-0.7-3.5-1.4-5.2
		c-0.8-1.7-1.7-3.3-2.7-4.7s-2-2.4-2.7-2.8h7.1C420.6,15.6,421.2,16.3,421.8,17.1z"/>
	<path d="M445.7,44.6c0.8,0.5,1.6,1,2.3,1.7c0.7,0.6,1.5,1.2,2.4,1.8c0.8,0.6,1.7,0.9,2.5,1.1c0.9,0.2,1.9,0.1,3-0.3
		c-0.9,0.9-1.5,1.7-2,2.4c-0.4,0.7-0.7,1.7-0.7,3.1v14.9c-1,1-2.2,2.3-3.6,3.8c-1.4,1.5-2.7,3.1-4,4.7c-1.3,1.7-2.4,3.4-3.4,5.2
		c-1,1.8-1.6,3.4-1.7,4.9c-0.2-1.4-0.7-2.8-1.5-4c-0.8-1.3-1.8-2.4-3-3.6c-1.2-1.1-2.4-2.1-3.8-3.1c-1.3-0.9-2.6-1.8-3.7-2.5
		c0.3-0.3,0.4-1.2,0.2-2.5c-0.2-1.4-0.4-2.9-0.7-4.6c-0.2-1.7-0.3-3.3-0.3-4.9c0-1.6,0.5-2.8,1.5-3.7c-0.9,1.6-0.9,3.1,0.1,4.6
		c1,1.5,2.5,2.9,4.3,4.3c1.8,1.3,3.7,2.6,5.7,3.7c2,1.1,3.5,2.2,4.6,3c0.2-1,0.4-2.2,0.5-3.4c0.1-1.3,0.1-2.6,0.1-4.1v-8.6
		c0-1.3-0.3-2.1-0.8-2.5c-0.5-0.4-1.3-0.9-2.2-1.4c-1.4,1.4-2.7,2.7-3.8,4c-1.1,1.2-1.9,2.1-2.6,2.7c-0.2,3,0.3,5.6,1.7,7.9
		c-1.1-1.1-1.9-2.3-2.4-3.7c-0.5-1.4-0.7-2.8-0.6-4.3c-1.6-1.4-2.8-2.8-3.8-4.1c-0.9-1.3-1.7-2.5-2.1-3.7c-0.5-1.1-0.8-2.2-0.9-3.1
		c-0.1-0.9-0.2-1.6-0.2-2.2v-4.4c0-0.6-0.1-1.1-0.2-1.7c-0.2-0.6-0.5-1-1.1-1.3c2.3-1.3,4.7-2.7,7.3-4.2c2.6-1.5,4.7-3.2,6.4-5.2
		c0.3,0.6,0.8,1,1.5,1.4c0.7,0.4,1.5,0.7,2.3,1c0.8,0.3,1.6,0.5,2.4,0.7c0.7,0.2,1.3,0.2,1.7,0.2c0.8,0,1.5-0.2,2.2-0.7
		s1.3-1.1,1.7-2c0.4-0.8,0.6-1.8,0.6-2.9c0-1.1-0.3-2.3-0.9-3.6c1.8,2.2,2.6,4.5,2.4,6.9c-0.2,2.4-1.3,4.5-3.1,6.3
		c-1.3,1.2-2.4,2.2-3.5,3.1c-1.1,0.9-2.1,1.8-3.1,2.7c-1,0.9-1.9,1.9-2.9,3c-0.9,1.1-1.9,2.5-2.8,4.3c0.2,0.2,0.5,0.4,0.8,0.7
		L445.7,44.6z M435.7,47.2c0,1.2,0.4,2.3,1.3,3.3c0.6-1.3,1.3-2.6,2.1-3.9c0.8-1.2,1.5-2.4,2.2-3.5l-5.5-2.5V47.2z"/>
	<path d="M535.8,63.3c0,1.1,0,2.2,0.1,3.1c0.1,1,0.2,1.9,0.5,2.7c-0.6,0-1.6,0.4-2.8,1.1c-1.3,0.8-2.6,1.7-4.1,2.9
		c-1.5,1.2-3,2.5-4.6,3.9s-3,2.8-4.4,4.1c-1.3,1.3-2.4,2.6-3.3,3.8c-0.9,1.2-1.3,2.1-1.4,2.8c-0.1-1.1-0.7-2.3-2-3.4
		c-1.2-1.2-2.8-2.4-4.7-3.6c-1.9-1.2-4-2.3-6.3-3.5c-2.3-1.1-4.6-2.2-6.8-3.3c-2.3-1-4.3-1.9-6.3-2.7c-1.9-0.8-3.5-1.5-4.7-2
		c-1.4-0.6-2.7-1-3.9-1.1c-1.1-0.1-2.2,0.6-3.1,2c-0.9,1.4-1.4,3.1-1.2,5c0.1,1.9,0.7,3.6,1.7,5.1c1,1.5,2.4,2.6,4.3,3.2
		c1.9,0.6,4.1,0.4,6.7-0.8c-2.3,1.3-4.5,1.8-6.7,1.4c-2.2-0.4-4-1.3-5.4-2.7s-2.3-3.2-2.7-5.4c-0.4-2.2,0-4.4,1.3-6.8
		c0.4-0.7,0.9-1.5,1.4-2.3c0.6-0.8,1-1.6,1.5-2.5c0.4-0.9,0.8-1.8,0.9-2.7c0.2-0.9,0.1-1.7-0.2-2.5c0.7,0,1.5,0.1,2.4,0.2
		c0.7,0.2,1.6,0.3,2.6,0.5c1,0.2,2.1,0.5,3.2,1c0.9,0.4,1.9,0.8,3,1.4c1.1,0.5,2.3,1,3.7,1.6V49.9c0-2.7-0.6-4.7-1.7-6.1
		c-1.1-1.4-2.3-2.2-3.6-2.4c-1.3-0.2-2.4,0.2-3.3,1.3s-1.3,2.7-0.9,4.8c-0.7-1.6-1-3.1-0.8-4.6c0.2-1.5,0.7-2.7,1.6-3.6
		c0.9-0.9,2-1.6,3.5-1.8c1.5-0.3,3.1-0.1,4.8,0.7c-0.5-2-1.4-3.8-2.8-5.4c-1.4-1.6-2.9-2.8-4.4-3.5c-1.5-0.7-2.8-0.8-4-0.4
		c-1.2,0.5-1.7,1.8-1.7,3.9c-0.6-2.1-0.5-3.7,0.4-4.7c0.9-1,2.1-1.5,3.6-1.7c1.5-0.1,3.2,0.1,5,0.7c1.8,0.6,3.2,1.3,4.3,2.3
		c0-1.3-0.4-2.3-1.1-3.2c-0.8-0.9-1.7-1.5-2.7-2c-1.1-0.4-2.2-0.7-3.4-0.8c-1.2-0.1-2.3,0-3.3,0.1c-1.6,0.3-2.8,0.9-3.8,1.8
		c-0.9,0.9-1.6,1.9-2,3c-0.4,1.1-0.4,2.3-0.1,3.5c0.3,1.2,0.8,2.2,1.6,3.1c-0.7-0.3-1.3-0.8-1.7-1.6c-0.4-0.8-0.7-1.6-0.9-2.5
		c-0.2-0.9-0.3-1.9-0.3-2.8c0-1,0.1-1.8,0.4-2.5c0.5-2,0.9-3.5,1.2-4.7c0.4-1.1,0-2.3-1-3.4c0.4-0.4,1.3-0.9,2.6-1.4
		c1.3-0.6,3.2-0.8,5.7-0.8c1.4,0,2.9,0.3,4.5,0.9c1.6,0.6,3.2,1.2,5,1.9c1.7,0.7,3.5,1.3,5.3,1.8c1.8,0.6,3.6,0.8,5.4,0.8
		c-0.9,0.9-1.5,1.7-2,2.4c-0.4,0.7-0.7,1.7-0.7,3.1l-0.1,32.7c0,0.6,0.1,1.2,0.3,1.7c0.2,0.5,0.6,0.9,1.2,1.2l-6.7,3.8
		c2.6,1.3,5.2,2.4,7.6,3.4V27.7c0-0.6-0.1-1.2-0.2-1.7c-0.2-0.5-0.5-0.9-1.1-1.2l16.5-9.6c1.3,0.4,2.8,0.8,4.7,1.2
		c1.9,0.4,3.5,0.5,5,0.3c1.5-0.2,2.5-0.8,3.1-1.9c0.6-1.1,0.3-2.9-0.9-5.4c1,1.3,1.6,2.5,1.7,3.9c0.2,1.3,0.1,2.6-0.1,3.9
		c-0.2,1.3-0.5,2.5-0.9,3.7c-0.4,1.2-0.5,2.4-0.5,3.4v8.6c-2.3,0.7-4.5,1.6-6.4,2.7c1,0.4,2,0.8,3.1,1.2c1,0.4,2,0.8,3,1
		s2,0.3,3,0.3c1,0,2-0.3,3.1-0.7c-0.9,0.9-1.5,1.7-2,2.4c-0.4,0.7-0.7,1.7-0.7,3.1V63.3z M509.6,70.7c1.1,0.5,2.1,0.9,3,1.2
		c0.9,0.4,1.8,0.7,2.5,1v-5.5L509.6,70.7z M514.2,22.7v41.6c0,0.5,0.1,0.9,0.2,1.4c0.1,0.5,0.4,0.9,0.8,1.2V23L514.2,22.7z
		 M517.1,23.5v20.3c0.6-1.7,1.6-3.6,2.8-5.5c1.2-1.9,2.6-3.4,4.2-4.4v-7.7v-0.7L517.1,23.5z M527.2,46.1c0-0.3,0-0.6,0.1-0.7
		c-0.9-0.4-1.9-0.8-2.9-1.3c-1-0.5-1.9-0.8-2.8-0.9c-0.9-0.2-1.7,0-2.5,0.4c-0.8,0.4-1.5,1.3-2,2.7v27.5c3.6,1.2,6.1,0.8,7.7-1.1
		c1.6-1.9,2.4-5.6,2.4-11.1V46.1z"/>
	<path d="M564.1,11.1c-0.8,0.8-1,1.7-0.7,2.6c0.3,0.9,0.7,2,1.2,3c0.5,1.1,0.9,2.2,1.2,3.3c0.3,1.1,0,2.3-0.8,3.4
		c0.6-2.1,0.3-3.8-0.8-5.1c-1.1-1.3-2.5-2.1-4.1-2.3c-1.6-0.2-3.3,0.3-5,1.4c-1.7,1.1-2.9,3.1-3.5,5.9c-0.6,2.5-1,5.4-1.1,8.6
		c-0.1,3.2-0.1,6.2-0.1,8.8v30.8l3.3,3c1.2-0.7,2.2-1.6,3-2.7c0.8-1.1,1.5-2.3,2.1-3.6c0,2-0.5,3.7-1.5,5.3c-1,1.5-2.1,3-3.3,4.5
		c-1.2,1.5-2.3,2.9-3.4,4.4c-1.1,1.5-1.7,3.2-2,5.2c-0.2-1.5-0.7-3-1.5-4.4c-0.9-1.5-1.8-2.8-2.9-4c-1.1-1.2-2.1-2.2-3.2-3.1
		c-1.1-0.9-2-1.4-2.7-1.7c1.4-0.9,2.3-2.3,2.7-4.4c0.4-2.1,0.6-4.5,0.6-7.3V28.2c-0.1-0.6-0.2-1.1-0.4-1.7c-0.2-0.6-0.5-1-1.1-1.3
		c1.6-0.9,3.1-1.7,4.6-2.6c1.5-0.9,3-1.8,4.5-2.8c3.2-2.5,6-4.6,8.4-6.3C560.4,11.8,562.5,11.1,564.1,11.1z"/>
	<path d="M580.9,63.7c0.1,1.1,0.2,2.1,0.2,3c0.1,0.9,0.2,1.7,0.5,2.4c-1,0.1-2.5,0.8-4.4,2.3c-1.9,1.4-3.8,3.1-5.7,5.1
		c-1.9,2-3.6,4-5,6.1c-1.5,2.1-2.3,3.9-2.4,5.3c-0.2-1.5-0.7-3-1.5-4.4c-0.9-1.5-1.8-2.8-2.9-4c-1.1-1.2-2.1-2.2-3.2-3.1
		c-1.1-0.9-2-1.4-2.7-1.7c1.4-0.9,2.3-2.3,2.7-4.4c0.4-2.1,0.6-4.5,0.6-7.3V43.7c0-0.6-0.1-1.2-0.3-1.7c-0.2-0.5-0.6-1-1.1-1.4
		c2.3-1.3,4.7-2.7,7.2-4.2c2.5-1.5,4.6-3.2,6.3-5.2c0.3,0.6,0.8,1,1.6,1.4c0.8,0.4,1.5,0.7,2.4,1c0.8,0.3,1.6,0.5,2.4,0.7
		c0.8,0.2,1.3,0.2,1.7,0.2c0.8,0,1.5-0.2,2.3-0.7s1.3-1.1,1.7-2c0.4-0.8,0.6-1.8,0.6-2.9c0-1.1-0.3-2.3-0.9-3.6
		c1.1,1.3,1.7,2.7,1.9,4c0.2,1.3,0.1,2.6-0.1,3.9c-0.2,1.3-0.6,2.6-0.9,3.9c-0.4,1.3-0.6,2.5-0.6,3.7L580.9,63.7z M572.3,45.6
		c0-0.6-0.1-1.1-0.2-1.6c-0.2-0.5-0.5-1-1.1-1.4l-5.2-1.9v30.9l3.3,3c0.7-0.5,1.3-1.1,1.7-2c0.4-0.9,0.8-1.8,1-2.8
		c0.2-1,0.4-2.1,0.4-3.1c0-1,0.1-1.9,0.1-2.6V45.6z"/>
	<path d="M590.5,89c-1.3-0.6-2.3-0.6-3,0.2c-0.7,0.8-1,1.8-1,3.1c0,1.4,0.4,2.7,1.2,3.8c0.8,1.1,1.8,2,3,2.7c1.2,0.7,2.6,1,4.1,1.1
		c1.5,0.1,2.9-0.2,4.4-0.7c-1.1,0.8-2.4,1.2-3.9,1.3c-1.5,0.1-3-0.2-4.4-0.7c-1.4-0.6-2.7-1.4-3.8-2.6c-1.1-1.2-1.8-2.7-2.1-4.5
		c-0.2-0.8-0.1-1.6,0.1-2.5c0.2-0.9,0.6-1.6,1.1-2.3c0.2-0.3,0.8-0.9,2-1.6c1.2-0.8,2.4-1.4,3.7-2.1c-0.6-1.2-1.2-2.3-2-3.4
		c-0.8-1.1-1.6-2-2.5-2.9c-0.9-0.9-1.8-1.6-2.6-2.1c-0.8-0.6-1.5-0.9-2.1-1.2c1.4-0.9,2.3-2.3,2.7-4.4c0.4-2.1,0.6-4.5,0.6-7.3V43.7
		c0-0.6-0.1-1.2-0.3-1.7c-0.2-0.5-0.6-1-1.1-1.4c2.3-1.3,4.7-2.7,7.2-4.2c2.5-1.5,4.6-3.2,6.2-5.2c0.3,0.6,0.8,1,1.6,1.4
		c0.7,0.4,1.5,0.7,2.4,1c0.8,0.3,1.6,0.5,2.4,0.7c0.7,0.2,1.3,0.2,1.7,0.2c0.8,0,1.5-0.2,2.2-0.7s1.3-1.1,1.7-2s0.6-1.8,0.6-2.9
		c0-1.1-0.3-2.3-0.9-3.6c1.1,1.3,1.7,2.7,1.9,4c0.2,1.3,0.1,2.6-0.1,3.9c-0.2,1.3-0.6,2.6-0.9,3.9c-0.4,1.3-0.6,2.5-0.6,3.7v27.3
		c0,3.4,0.4,6.3,1.1,8.8c0.7,2.5,1.3,4.6,1.6,6.3c-1,1.1-2.1,2.5-3.1,4.1c-1.1,1.7-2.1,3.4-3,5.2c-0.9,1.8-1.7,3.7-2.4,5.5
		c-0.7,1.9-1.1,3.5-1.2,5c-0.2-1.5-0.6-3-1.4-4.4c-0.8-1.5-1.7-2.8-2.8-4c-1.1-1.2-2.3-2.3-3.7-3.3C593.2,90.4,591.9,89.6,590.5,89z
		 M594.5,40.8v30.9l3.3,3c0.8-0.5,1.4-1.2,1.9-2.2c0.5-1,0.8-2.1,0.9-3.2c0.2-1.1,0.3-2.3,0.3-3.4c0-1.1,0.1-2.1,0.1-3V45.6
		c0-0.6-0.1-1.1-0.2-1.6c-0.2-0.5-0.5-1-1.1-1.4L594.5,40.8z M594.6,82.7c1.8,0.6,3.6,1.4,5.4,2.6c1.8,1.2,3.3,2.4,4.5,3.8
		c-0.6-2.8-1.4-5.3-2.2-7.5c-0.9-2.2-1.3-4.7-1.3-7.5c-0.9,1.6-1.9,3-3.1,4.3C596.6,79.7,595.5,81.1,594.6,82.7z"/>
</g>
<g>
</g>
<g>
</g>
<g>
</g>
<g>
</g>
<g>
</g>
<g>
</g>
</svg>
